# xmcd
#
# Track frame offsets:
#	150
#	17222
#	31647
#	41242
#	56452
#	70225
#	81587
#	94585
#	109847
#	121515
#	136175
#	144965
#	158590
#	171515
#
# Disc length: 2529 seconds
#
# Revision: 1
# Processed by: cddbd v1.5.2PL0 Copyright (c) Steve Scherf et al.
# Submitted via: audiograbber 1.83.01
#
DISCID=b209df0e
DTITLE=Various Artist - Inmitten der Nacht
DYEAR=1996
DGENRE=Tradition/Volkslieder
TTITLE0=Qu. Amper/T.Dorfhuber - V.:Pirol - Leise rieselt der Schnee
TTITLE1=Volksweise/bearb..:R.Knabl - V.:Winkel MV - Es wird scho glei dumpa
TTITLE2=Trad.bearb.: A.Dimes - V.:Clarino - O Tannenbaum
TTITLE3=Qu. Amper/T.Dorfhuber - V.:Pirol - Es blühen die Maien bei kalter Winte
TTITLE3=rzeit
TTITLE4=Trad.bearb.: A.Dimes  - Süßer die Glocken nie klingen
TTITLE5=Qu. Amper/T.Dorfhuber - V.:Pirol - Still, Still
TTITLE6=Qu. Amper/T.Dorfhuber - V.:Pirol - Jingle Bells
TTITLE7=Volksweise/bearb..:R.Knabl - V.:Winkel MV - Inmitten der Nacht
TTITLE8=Qu. Amper/T.Dorfhuber - V.:Pirol - Liabs Kinderl
TTITLE9=I.Berlin - V.:Chappel - White Christmas
TTITLE10=Qu. Amper/T.Dorfhuber - V.:Pirol - Es hat sich halt eröffnet, das himm
TTITLE10=lische Tor
TTITLE11=Trad.bearb.: A.Dimes  - Aber heidschi bumbeidschi
TTITLE12=Volksweise/bearb..:R.Knabl - V.:Winkel MV - Kindel wiegen
TTITLE13=M.: F. Gruber - T.:J. Mohr - Bearb.:Qu. Amper/T.Dorfhuber - V.:Pirol /
TTITLE13=Stille Nacht, Heilige Nacht
EXTD=LC_7116_Verlag_Polyband
EXTT0=
EXTT1=
EXTT2=
EXTT3=
EXTT4=
EXTT5=
EXTT6=
EXTT7=
EXTT8=
EXTT9=
EXTT10=
EXTT11=
EXTT12=
EXTT13=
PLAYORDER=
